<?xml version="1.0" standalone="no"?>
<!DOCTYPE svg PUBLIC "-//W3C//DTD SVG 20010904//EN"
 "http://www.w3.org/TR/2001/REC-SVG-20010904/DTD/svg10.dtd">
<svg version="1.0" xmlns="http://www.w3.org/2000/svg"
 width="260.000000pt" height="260.000000pt" viewBox="0 0 260.000000 260.000000"
 preserveAspectRatio="xMidYMid meet">
<metadata>
Created by potrace 1.14, written by Peter Selinger 2001-2017
</metadata>
<g transform="translate(0.000000,260.000000) scale(0.100000,-0.100000)"
fill="#000000" stroke="none">
<path d="M1153 2156 c-198 -38 -349 -121 -490 -269 -133 -140 -219 -329 -230
-509 l-6 -88 -156 -2 -156 -3 0 -310 0 -310 300 -3 c298 -2 299 -2 325 -26 76
-70 238 -152 360 -182 113 -28 317 -26 430 4 110 30 231 90 308 152 l62 50
292 2 293 3 0 310 0 310 -152 3 -153 3 0 59 c0 183 -102 412 -248 558 -109
109 -257 193 -407 232 -103 27 -275 34 -372 16z m326 -21 c177 -37 326 -120
453 -253 144 -151 215 -313 234 -529 l7 -83 148 0 149 0 0 -295 0 -295 -285 0
-285 0 -62 -51 c-72 -58 -214 -130 -308 -156 -92 -25 -358 -25 -450 0 -96 27
-217 88 -298 151 l-71 56 -290 0 -291 0 0 295 0 295 154 0 154 0 7 78 c24 281
164 520 391 664 106 68 183 98 329 131 48 11 249 6 314 -8z"/>
<path d="M1127 2090 c-364 -77 -637 -408 -637 -772 l0 -88 -160 0 -160 0 0
-255 0 -255 280 0 280 0 54 -44 c304 -247 765 -246 1048 3 l46 41 276 0 276 0
0 255 0 255 -153 0 -153 0 4 40 c6 58 -16 202 -43 287 -65 205 -263 414 -469
494 -156 60 -324 74 -489 39z m378 -45 c90 -23 233 -98 300 -157 183 -161 275
-349 275 -565 l0 -93 -456 0 c-301 0 -453 3 -449 10 3 6 15 10 25 10 10 0 25
6 32 12 22 21 97 22 119 2 23 -21 25 -3 3 31 -13 20 -21 23 -46 18 -24 -5 -29
-3 -23 7 5 8 20 10 41 7 43 -7 44 7 3 22 -48 16 -65 14 -83 -14 -9 -14 -21
-25 -27 -25 -6 0 -22 -9 -36 -20 -33 -26 -86 -27 -81 -2 2 12 16 18 49 22 51
6 83 26 75 46 -7 18 41 54 71 54 14 0 21 4 18 10 -9 14 -68 13 -83 -2 -9 -9
-12 -8 -12 4 0 17 20 28 51 28 11 0 17 5 14 10 -9 15 -53 12 -80 -6 -24 -16
-34 -44 -16 -44 4 0 6 -11 3 -25 -2 -14 -11 -25 -19 -25 -7 0 -25 -7 -39 -16
-21 -14 -29 -15 -50 -4 -21 12 -26 11 -38 -6 -14 -18 -15 -18 -25 9 -14 35
-14 47 -1 47 5 0 7 13 4 30 -5 22 -2 31 10 36 10 4 16 18 16 37 0 17 3 27 7
24 3 -4 6 -31 5 -59 l-1 -53 19 35 c10 19 19 45 20 58 0 12 5 22 10 22 16 0
11 -41 -10 -87 -10 -24 -17 -43 -15 -43 9 0 52 76 60 105 6 27 8 28 15 10 6
-17 8 -16 14 12 10 42 26 52 26 16 0 -22 2 -25 10 -13 5 8 10 30 10 48 0 39
20 34 21 -6 l1 -27 7 25 7 25 18 -33 c18 -35 74 -80 146 -117 25 -13 63 -42
84 -64 46 -47 87 -64 141 -57 59 7 62 21 10 46 -25 12 -65 38 -88 57 -80 67
-125 163 -77 163 20 0 20 1 4 25 -9 14 -29 32 -43 40 l-26 13 26 10 c31 12
107 5 129 -12 34 -27 140 -59 235 -72 28 -3 54 -12 58 -20 14 -24 37 -15 54
20 15 33 15 35 -14 83 -21 35 -43 55 -84 76 -30 16 -63 36 -74 46 -11 9 -45
34 -76 55 -31 20 -70 50 -88 67 -18 16 -36 29 -42 29 -5 0 -9 6 -9 14 0 8 -19
23 -42 35 l-43 21 -99 -32 c-82 -26 -101 -29 -118 -19 -26 16 -33 8 -17 -18
17 -27 5 -37 -25 -21 -14 7 -32 10 -41 6 -15 -5 -14 -9 9 -27 14 -11 26 -25
26 -30 0 -12 -37 -11 -62 2 -27 14 -34 5 -19 -27 15 -33 6 -47 -20 -33 -27 14
-36 3 -20 -23 9 -15 10 -23 2 -28 -7 -3 -9 -15 -5 -24 6 -16 5 -17 -16 -6 -20
11 -22 10 -17 -4 20 -48 20 -51 6 -38 -20 18 -32 15 -26 -9 8 -29 -2 -49 -20
-42 -12 5 -14 1 -9 -18 7 -23 6 -23 -8 -5 -16 19 -16 19 -16 -5 l-1 -24 -19
24 c-19 22 -20 22 -20 3 0 -29 -18 -37 -39 -18 -24 22 -31 20 -31 -9 0 -29 -7
-30 -34 -10 -27 20 -36 19 -36 -5 0 -21 -15 -27 -25 -10 -11 18 -35 11 -35
-10 0 -23 -10 -26 -28 -8 -18 18 -62 -5 -55 -30 7 -26 -24 -37 -32 -11 -6 17
-17 24 -38 20 -19 -3 36 126 84 196 125 183 311 304 527 343 67 13 256 4 327
-15z m35 -200 c0 -35 -24 -75 -46 -75 -19 0 -18 29 3 52 14 16 15 21 3 44 -12
22 -12 27 0 34 20 13 40 -15 40 -55z m115 -56 l39 -52 -29 -24 -29 -25 -29 32
c-21 24 -26 35 -17 40 9 5 10 20 6 44 -10 52 12 47 59 -15z m86 -89 c5 0 9 -4
9 -10 0 -5 -13 -10 -30 -10 -29 0 -38 9 -23 24 4 3 13 4 21 1 7 -3 18 -5 23
-5z m-744 -232 c-3 -8 -6 -5 -6 6 -1 11 2 17 5 13 3 -3 4 -12 1 -19z m-7 -75
c0 -14 -3 -14 -20 2 -11 10 -18 20 -15 23 2 3 0 14 -6 26 -8 16 -4 14 15 -7
14 -15 26 -35 26 -44z m-56 -49 c3 -8 2 -12 -4 -9 -6 3 -10 10 -10 16 0 14 7
11 14 -7z m60 -41 c4 -9 4 -18 1 -21 -7 -8 -35 19 -35 34 0 17 27 7 34 -13z
m-134 -15 c0 -7 3 -23 6 -35 5 -20 2 -23 -20 -23 -22 0 -26 4 -26 28 0 16 3
32 7 35 11 12 33 8 33 -5z m90 -46 c0 -9 -9 -12 -27 -10 -24 2 -29 8 -31 36
l-3 34 30 -23 c17 -13 31 -29 31 -37z m73 43 c4 -8 2 -17 -3 -20 -6 -4 -10 3
-10 14 0 25 6 27 13 6z m-231 -55 c-2 -3 -10 3 -17 14 -11 14 -11 21 -2 31 10
10 13 8 18 -14 3 -14 3 -28 1 -31z m-47 10 c3 -5 -1 -10 -9 -10 -9 0 -16 5
-16 10 0 6 4 10 9 10 6 0 13 -4 16 -10z m-365 -225 c0 -192 -5 -211 -61 -241
-30 -15 -86 -19 -106 -6 -9 6 -27 80 -28 117 0 6 14 9 31 7 20 -2 38 3 49 15
16 15 17 32 12 150 l-5 133 54 0 54 0 0 -175z m1358 151 c57 -19 87 -167 45
-224 -22 -29 -37 -38 -75 -47 -27 -5 -28 -8 -28 -71 l0 -65 -47 3 c-42 3 -48
6 -47 26 0 12 1 107 2 210 l2 188 63 -6 c34 -4 72 -10 85 -14z m-619 -17 c30
-11 31 -12 17 -34 -24 -36 -28 -86 -12 -140 20 -65 20 -91 -4 -143 l-19 -43
-33 17 c-22 11 -33 13 -36 5 -2 -6 -17 -11 -33 -11 -22 0 -32 7 -41 25 -9 19
-19 25 -45 25 -27 0 -35 -5 -43 -25 -8 -21 -16 -25 -53 -25 -42 0 -43 1 -72
58 l-30 57 -3 -52 -3 -53 -35 0 -34 0 0 164 c0 186 -5 176 91 176 57 0 78 -20
90 -86 8 -40 6 -55 -12 -92 -20 -39 -20 -47 -8 -73 14 -29 15 -26 47 111 l33
140 38 0 38 0 32 -142 c42 -185 40 -180 59 -140 14 29 14 39 2 80 -24 83 -24
118 0 167 24 50 24 50 69 34z m108 0 l31 -10 -21 -49 c-20 -48 -20 -51 -4
-103 22 -70 21 -109 -3 -157 l-20 -40 -35 17 c-26 12 -34 21 -29 32 27 65 28
71 15 113 -24 79 -24 112 -1 161 24 52 24 52 67 36z m-747 -123 c0 -118 1
-125 21 -131 12 -4 25 -3 31 3 5 5 13 63 18 128 5 66 9 120 9 122 1 1 15 2 31
2 l30 0 0 -170 0 -170 -39 0 c-28 0 -40 5 -43 16 -3 14 -7 13 -30 -5 -26 -21
-28 -21 -62 -4 l-36 17 0 158 0 158 35 0 35 0 0 -124z m880 62 l0 -63 21 43
c21 42 61 82 83 82 7 0 20 -17 30 -37 l18 -37 -26 -19 c-63 -46 -65 -102 -5
-156 l30 -28 -17 -36 c-10 -21 -20 -37 -24 -37 -9 0 -86 82 -98 105 -9 16 -11
10 -12 -37 0 -53 -2 -58 -25 -64 -54 -13 -55 -9 -55 176 l0 170 40 0 40 0 0
-62z m597 -55 l28 -118 3 111 c2 106 4 112 25 118 29 8 91 8 112 0 44 -17 60
-125 26 -180 -18 -30 -18 -31 5 -88 26 -64 24 -76 -10 -76 -17 0 -29 14 -51
58 l-30 57 -3 -51 c-3 -51 -3 -52 -40 -58 -67 -11 -82 -8 -92 19 -8 20 -16 25
-45 25 -29 0 -36 -4 -41 -26 -5 -21 -11 -25 -38 -22 -17 2 -30 8 -30 13 1 6
19 83 40 173 l38 162 37 0 37 0 29 -117z m315 60 l3 -58 33 57 34 58 28 -15
c16 -8 31 -18 33 -23 3 -4 -12 -36 -34 -72 -21 -36 -39 -69 -39 -74 0 -5 18
-33 40 -62 22 -29 40 -55 40 -58 0 -2 -14 -13 -32 -24 l-31 -20 -30 44 c-40
61 -47 62 -47 10 0 -50 -8 -59 -45 -50 l-25 6 0 169 0 169 35 0 34 0 3 -57z
m-472 -388 c0 -7 -121 -85 -132 -85 -5 0 -6 4 -3 10 4 6 -5 9 -19 8 -15 -1
-26 -9 -26 -16 0 -8 -6 -12 -14 -9 -7 3 -19 0 -26 -6 -10 -10 -12 -7 -7 11 3
12 1 22 -5 22 -5 0 -6 5 -3 10 3 6 -2 10 -12 10 -14 0 -15 2 -5 9 11 6 10 10
-3 15 -26 10 -47 -13 -43 -46 3 -18 0 -28 -8 -28 -18 0 -27 17 -12 23 9 4 4
14 -15 31 -35 32 -50 33 -70 3 -13 -20 -22 -23 -58 -20 -52 4 -56 7 -38 30 13
16 12 17 -3 5 -13 -10 -17 -10 -21 0 -4 9 -9 8 -18 -6 -12 -19 -12 -19 -26 0
-13 18 -14 17 -8 -8 8 -33 5 -34 -25 -8 -24 21 -60 27 -60 11 0 -5 -11 -4 -24
2 -13 7 -22 15 -20 19 11 18 -44 6 -61 -12 -15 -16 -15 -20 -3 -20 8 0 15 -6
15 -14 0 -10 -7 -11 -34 -3 -18 6 -33 14 -33 18 0 12 -33 -1 -47 -19 -11 -13
-20 -10 -68 23 -30 21 -55 40 -55 42 0 1 223 3 495 3 272 0 495 -2 495 -5z
m-664 -97 c5 -8 0 -9 -17 -5 -13 4 -30 7 -37 7 -10 0 -10 3 0 14 14 15 40 7
54 -16z m279 22 c3 -5 1 -10 -4 -10 -6 0 -11 5 -11 10 0 6 2 10 4 10 3 0 8 -4
11 -10z"/>
<path d="M1607 1623 c-7 -12 28 -44 39 -35 4 4 4 -2 0 -12 -5 -16 -4 -17 9 -6
17 14 21 35 5 25 -5 -3 -10 -1 -10 6 0 7 -3 9 -7 6 -3 -4 -11 1 -18 10 -7 9
-15 12 -18 6z"/>
<path d="M1683 1588 c-21 -28 -24 -38 -9 -32 14 5 30 33 23 41 -2 2 -9 -2 -14
-9z"/>
<path d="M1696 1565 c-19 -29 -11 -33 17 -7 15 12 18 13 12 2 -8 -13 -7 -13
10 0 17 14 18 13 11 -5 -4 -11 -4 -16 0 -12 4 4 13 2 19 -3 15 -12 40 13 30
30 -9 15 -25 12 -25 -5 0 -12 -4 -11 -20 5 -26 26 -34 25 -54 -5z"/>
<path d="M1806 1554 c-3 -9 -6 -17 -6 -19 0 -5 52 5 64 12 6 4 5 -1 -3 -10 -8
-10 -9 -17 -3 -17 16 0 26 20 15 31 -18 18 -60 20 -67 3z"/>
<path d="M1496 1542 c-4 -6 2 -20 14 -32 11 -11 20 -23 21 -27 0 -5 9 -16 19
-25 12 -11 21 -13 28 -6 17 17 -9 39 -27 24 -12 -9 -12 -8 -2 11 10 19 9 22
-4 17 -8 -4 -15 -2 -15 3 0 19 -27 46 -34 35z"/>
<path d="M1640 1445 c-14 -26 -14 -26 -25 -5 -10 19 -13 20 -25 5 -7 -8 -10
-19 -6 -22 4 -4 12 -1 17 7 8 11 9 10 4 -7 -5 -18 -3 -22 9 -17 12 5 15 2 10
-10 -7 -19 7 -21 24 -4 14 14 16 32 2 23 -6 -4 -6 3 0 21 14 35 7 41 -10 9z"/>
<path d="M1666 1405 c-13 -20 -14 -25 -3 -25 8 0 19 11 25 25 6 14 8 25 3 25
-5 0 -16 -11 -25 -25z"/>
<path d="M1689 1389 c-7 -14 -8 -24 -1 -31 13 -13 32 -2 32 18 0 9 -5 12 -12
8 -8 -5 -9 -2 -5 9 9 24 0 21 -14 -4z"/>
<path d="M1680 1035 c0 -48 0 -48 24 -39 10 4 16 18 16 39 0 21 -6 35 -16 39
-24 9 -24 9 -24 -39z"/>
<path d="M710 1041 c0 -49 14 -60 35 -27 13 19 14 29 5 45 -19 36 -40 26 -40
-18z"/>
<path d="M910 976 c0 -8 -3 -21 -6 -30 -4 -11 0 -16 14 -16 15 0 18 5 14 25
-5 28 -22 44 -22 21z"/>
<path d="M2060 1034 c0 -50 16 -56 37 -14 13 27 1 60 -22 60 -11 0 -15 -12
-15 -46z"/>
<path d="M1881 967 c-14 -37 -14 -37 9 -37 21 0 24 12 10 45 -7 19 -9 18 -19
-8z"/>
</g>
</svg>
